# xmcd CD database file
# Generated: Wed Jul 17 21:51:41 2002 by KSCD
# 
# Track frame offsets:
#       150
#       10443
#       22317
#       33440
#       50230
#       58031
#       72188
#       87713
#       99202
#       110366
#       130128
#       150960
#
# Disc length: 2344 seconds
#
# Revision: 1
# Processed by: cddbd v1.4PL0 Copyright (c) Steve Scherf et al.
# Submitted via: Kscd 1.3.3
#
DISCID=a009260c
DTITLE=Cajun Hurricane - Cajun Hurricane
DYEAR=1900
DGENRE=
TTITLE0=Hurricane
TTITLE1=
TTITLE2=
TTITLE3=
TTITLE4=
TTITLE5=
TTITLE6=
TTITLE7=
TTITLE8=
TTITLE9=
TTITLE10=
TTITLE11=
EXTD=
EXTT0=
EXTT1=
EXTT2=
EXTT3=
EXTT4=
EXTT5=
EXTT6=
EXTT7=
EXTT8=
EXTT9=
EXTT10=
EXTT11=
PLAYORDER=
